<svg width="750" height="155" viewBox="0 0 750 155" fill="none" xmlns="http://www.w3.org/2000/svg">
<g clip-path="url(#clip0_404_131)">
<mask id="mask0_404_131" style="mask-type:luminance" maskUnits="userSpaceOnUse" x="0" y="0" width="262" height="155">
<path d="M261.377 0.62207H0V154.105H261.377V0.62207Z" fill="white"/>
</mask>
<g mask="url(#mask0_404_131)">
<path d="M165.065 151.488C158.595 149.805 152.377 147.268 146.573 143.944C140.8 140.566 135.5 136.435 130.811 131.659C126.452 127.288 121.916 119.178 117.338 107.557C113.945 98.7745 111.026 89.8154 108.592 80.7186L152.928 78.8374C153.728 93.553 164.953 105.967 179.619 108.356L172.934 147.88L165.065 151.488L165.065 151.488Z" fill="#FBA554"/>
<path d="M184.841 154.226C178.158 154.195 171.508 153.274 165.065 151.489L176.753 107.754C179.396 108.435 182.114 108.779 184.843 108.777C189.357 108.781 193.822 107.831 197.946 105.99C202.07 104.149 205.761 101.459 208.78 98.0928L238.648 123.808L238.872 131.66C234.183 136.435 228.882 140.567 223.11 143.945C217.306 147.269 211.088 149.806 204.618 151.49C198.175 153.275 191.525 154.195 184.841 154.226Z" fill="#FAC353"/>
<path d="M238.87 131.659L207.117 99.8186C210.186 96.8918 212.629 93.3681 214.294 89.4628C215.96 85.5575 216.814 81.3527 216.803 77.1053C216.807 73.5848 216.217 70.089 215.06 66.7653L252.143 53.6099L258.645 57.6537C260.426 64.1135 261.344 70.7817 261.375 77.4836C261.344 84.1855 260.426 90.8536 258.645 97.3134C256.966 103.8 254.437 110.035 251.122 115.855C247.753 121.643 243.633 126.958 238.87 131.659Z" fill="#FEFE67"/>
<path d="M215.791 69.1685C214.233 63.3213 211.051 58.0376 206.617 53.9318C202.182 49.826 196.676 47.0667 190.739 45.9746L198.004 7.15284L204.618 3.47803C211.088 5.1621 217.305 7.69928 223.109 11.0232C228.882 14.4014 234.182 18.5325 238.871 23.3084C243.634 28.0103 247.754 33.3249 251.123 39.1133C254.438 44.9329 256.969 51.1678 258.648 57.6547L215.791 69.1685Z" fill="#D3EA5C"/>
<path d="M160.376 56.7315L130.665 31.531L130.813 23.3076C135.502 18.5317 140.802 14.4006 146.575 11.0224C152.379 7.69867 158.597 5.16166 165.066 3.47774C171.508 1.69273 178.158 0.772529 184.842 0.741211C191.526 0.772529 198.176 1.69273 204.618 3.47774L193.119 46.5087C190.418 45.7951 187.636 45.4346 184.843 45.4363C180.191 45.4269 175.594 46.4321 171.369 48.3824C167.144 50.3327 163.393 53.1812 160.376 56.7305V56.7315Z" fill="#71AE50"/>
<path d="M142.932 101.8L106.376 88.4171C107.768 84.81 108.48 80.9748 108.474 77.107C108.481 72.9502 107.662 68.8336 106.064 64.9979C104.466 61.1622 102.122 57.6843 99.168 54.7674L130.542 23.3081C135.305 28.01 139.425 33.3247 142.794 39.113C146.11 44.9329 148.641 51.1681 150.32 57.6555C152.1 64.1154 153.018 70.7835 153.049 77.4853C153.018 84.1872 152.1 90.8554 150.32 97.3152L142.934 101.801L142.932 101.8Z" fill="#FBA554"/>
<path d="M150.235 97.5691L107.195 86.0051C107.986 83.3192 108.414 80.5392 108.467 77.7393H152.464C153.352 78.6868 153.88 83.9295 150.235 97.5691Z" fill="#0391CE"/>
<path d="M22.4825 131.659C17.7194 126.958 13.5994 121.644 10.2305 115.857C6.91557 110.036 4.3854 103.801 2.7062 97.3136C0.925998 90.8538 0.00827844 84.1857 -0.0229492 77.4838C0.00823331 70.7817 0.925953 64.1135 2.7062 57.6534L11.201 51.9326L46.6492 65.8006C44.4243 71.5887 43.9577 77.9077 45.3082 83.9613C46.6587 90.0149 49.7659 95.5323 54.2383 99.8183L22.4825 131.659Z" fill="#8A38AF"/>
<path d="M45.5647 69.1695L2.70703 57.6542C6.07752 44.6137 12.8644 32.7141 22.3643 23.1885C31.8643 13.6628 43.7317 6.85764 56.737 3.47803L64.6559 8.37624L71.0918 45.8906C65.0554 46.8987 59.4368 49.6308 54.9096 53.7594C50.3824 57.8881 47.1385 63.2382 45.5667 69.1685L45.5647 69.1695Z" fill="#A7194B"/>
<path d="M100.856 56.5825C97.8374 53.0775 94.0999 50.2671 89.8987 48.3434C85.6975 46.4197 81.1317 45.4281 76.5132 45.4363C73.7194 45.4355 70.9372 45.7968 68.2359 46.5112L56.7368 3.47774C63.1792 1.6927 69.8294 0.772499 76.5132 0.741211C83.1968 0.772556 89.8467 1.69276 96.289 3.47774C102.759 5.16179 108.977 7.69897 114.781 11.0229C120.554 14.4011 125.854 18.5322 130.543 23.3081L130.733 30.9305L100.856 56.5825Z" fill="#FE5D58"/>
<path d="M111.036 97.3141C109.256 90.8543 108.338 84.1862 108.307 77.4843C108.338 70.7828 109.256 64.115 111.036 57.6555C112.715 51.1687 115.246 44.934 118.561 39.1145C121.929 33.3257 126.049 28.0105 130.812 23.3081L162.187 54.7679C159.233 57.6848 156.889 61.1626 155.291 64.9982C153.694 68.8338 152.874 72.9503 152.881 77.107C152.881 77.708 152.898 78.3156 152.932 78.914L121.728 80.313L111.037 97.3126L111.036 97.3141Z" fill="#0391CE"/>
<path d="M96.2889 151.49L90.1118 142.296L82.9438 108.136C88.6603 107.009 93.9559 104.323 98.2479 100.373C102.54 96.4229 105.662 91.3621 107.27 85.7476L150.318 97.3161C148.639 103.803 146.109 110.038 142.794 115.858C139.425 121.646 135.305 126.961 130.542 131.662C125.853 136.438 120.552 140.569 114.78 143.948C108.976 147.272 102.758 149.809 96.2884 151.493L96.2889 151.49Z" fill="#556BFE"/>
<path d="M76.5139 154.225C69.8301 154.194 63.18 153.274 56.7376 151.489C50.2443 149.794 44.0065 147.235 38.19 143.881C32.3998 140.479 27.0813 136.327 22.3716 131.533L54.1891 99.77C60.1772 105.573 68.1864 108.805 76.5139 108.779C79.2424 108.78 81.9602 108.437 84.6028 107.755L96.2897 151.491C89.8474 153.275 83.1974 154.194 76.5139 154.225Z" fill="#4E34A4"/>
</g>
</g>
<path d="M670.438 79.8022C670.438 71.7657 672.045 64.6092 675.259 58.3331C678.551 52.0569 683.22 47.1966 689.266 43.7524C695.313 40.2316 702.431 38.4712 710.62 38.4712C717.662 38.4712 723.938 39.8106 729.449 42.4895C735.036 45.0918 739.552 48.804 742.996 53.6259C746.517 58.4479 748.852 64.0735 750 70.5028H723.135C721.91 67.8239 720.15 65.7573 717.853 64.3031C715.634 62.7723 713.07 62.0069 710.161 62.0069C705.875 62.0069 702.469 63.6142 699.943 66.8289C697.494 70.0435 696.269 74.368 696.269 79.8022C696.269 85.2365 697.494 89.561 699.943 92.7756C702.469 95.9902 705.875 97.5976 710.161 97.5976C713.07 97.5976 715.634 96.8704 717.853 95.4162C720.15 93.8854 721.91 91.7806 723.135 89.1017H750C748.852 95.531 746.517 101.157 742.996 105.979C739.552 110.801 735.036 114.551 729.449 117.23C723.938 119.832 717.662 121.133 710.62 121.133C702.431 121.133 695.313 119.411 689.266 115.967C683.22 112.446 678.551 107.548 675.259 101.271C672.045 94.9952 670.438 87.8388 670.438 79.8022Z" fill="white"/>
<path d="M661.223 39.2744V120.559H635.735V39.2744H661.223Z" fill="white"/>
<path d="M627.651 67.1729C627.651 72.301 626.465 76.9699 624.092 81.1795C621.72 85.3126 618.199 88.6038 613.53 91.053C608.938 93.5023 603.35 94.7269 596.768 94.7269H586.665V120.559H561.177V39.2744H596.768C606.718 39.2744 614.334 41.8002 619.615 46.8518C624.972 51.9033 627.651 58.677 627.651 67.1729ZM593.898 74.6354C599.179 74.6354 601.819 72.1479 601.819 67.1729C601.819 62.1978 599.179 59.7103 593.898 59.7103H586.665V74.6354H593.898Z" fill="white"/>
<path d="M510.307 121.363C502.654 121.363 495.612 119.564 489.183 115.967C482.83 112.369 477.778 107.394 474.028 101.042C470.278 94.6889 468.402 87.5325 468.402 79.5724C468.402 71.6124 470.278 64.456 474.028 58.1033C477.778 51.7505 482.83 46.8138 489.183 43.293C495.612 39.6956 502.654 37.897 510.307 37.897C517.961 37.897 524.965 39.6956 531.317 43.293C537.67 46.8138 542.683 51.7505 546.357 58.1033C550.108 64.456 551.983 71.6124 551.983 79.5724C551.983 87.5325 550.108 94.6889 546.357 101.042C542.683 107.394 537.632 112.369 531.203 115.967C524.85 119.564 517.885 121.363 510.307 121.363ZM510.307 97.5974C515.359 97.5974 519.262 95.9901 522.018 92.7754C524.773 89.4842 526.151 85.0832 526.151 79.5724C526.151 73.9851 524.773 69.5841 522.018 66.3695C519.262 63.0783 515.359 61.4327 510.307 61.4327C505.179 61.4327 501.238 63.0783 498.482 66.3695C495.727 69.5841 494.349 73.9851 494.349 79.5724C494.349 85.0832 495.727 89.4842 498.482 92.7754C501.238 95.9901 505.179 97.5974 510.307 97.5974Z" fill="white"/>
<path d="M419.828 121.363C412.174 121.363 405.132 119.564 398.703 115.967C392.35 112.369 387.299 107.394 383.548 101.042C379.798 94.6889 377.923 87.5325 377.923 79.5724C377.923 71.6124 379.798 64.456 383.548 58.1033C387.299 51.7505 392.35 46.8138 398.703 43.293C405.132 39.6956 412.174 37.897 419.828 37.897C427.482 37.897 434.485 39.6956 440.838 43.293C447.191 46.8138 452.204 51.7505 455.878 58.1033C459.628 64.456 461.503 71.6124 461.503 79.5724C461.503 87.5325 459.628 94.6889 455.878 101.042C452.204 107.394 447.152 112.369 440.723 115.967C434.37 119.564 427.405 121.363 419.828 121.363ZM419.828 97.5974C424.88 97.5974 428.783 95.9901 431.538 92.7754C434.294 89.4842 435.672 85.0832 435.672 79.5724C435.672 73.9851 434.294 69.5841 431.538 66.3695C428.783 63.0783 424.88 61.4327 419.828 61.4327C414.7 61.4327 410.758 63.0783 408.003 66.3695C405.247 69.5841 403.87 73.9851 403.87 79.5724C403.87 85.0832 405.247 89.4842 408.003 92.7754C410.758 95.9901 414.7 97.5974 419.828 97.5974Z" fill="white"/>
<path d="M347.63 101.271H372.199V120.559H322.143V39.2744H347.63V101.271Z" fill="white"/>
<defs>
<clipPath id="clip0_404_131">
<rect width="261.377" height="153.483" fill="white" transform="translate(0 0.62207)"/>
</clipPath>
</defs>
</svg>
