<?xml version="1.0" encoding="utf-8"?>
<!-- Generator: Adobe Illustrator 23.0.2, SVG Export Plug-In . SVG Version: 6.00 Build 0)  -->
<svg version="1.1" id="Layer_1" xmlns="http://www.w3.org/2000/svg" xmlns:xlink="http://www.w3.org/1999/xlink" x="0px" y="0px"
	 viewBox="0 0 200 200" style="enable-background:new 0 0 200 200;" xml:space="preserve">
<style type="text/css">
	.st0{fill:#21262E;}
	.st1{fill:#FFFFFF;}
	.st2{fill:#54AE47;}
</style>
<path class="st0" d="M170.1,3.6H29.7C15.1,3.6,3.2,15.5,3.2,30.1v140.4c0,14.6,11.9,26.5,26.5,26.5h140.4
	c14.6,0,26.5-11.9,26.5-26.5V30.1C196.5,15.5,184.6,3.6,170.1,3.6z"/>
<g>
	<g>
		<path class="st1" d="M35.3,126.3c-3-0.5-5.7-1.1-8.1-1.9v-12.3c2.4,0.8,5.2,1.5,8.3,1.9c3.1,0.5,6,0.7,8.7,0.7
			c3.4,0,5.9-0.5,7.4-1.4c1.5-0.9,2.2-2.3,2.2-4.1c0-1-0.2-1.8-0.6-2.4c-0.4-0.6-1.2-1.2-2.2-1.7c-1.1-0.5-2.6-1-4.6-1.6l-4.8-1.3
			c-5.3-1.3-9.3-3.4-11.9-6.2c-2.6-2.8-4-6.5-4-11.1c0-5.9,2.2-10.5,6.5-13.7c4.3-3.2,10.8-4.8,19.3-4.8c2.7,0,5.2,0.2,7.7,0.5
			c2.5,0.3,4.7,0.7,6.7,1.3v12.3c-1.8-0.6-3.9-1-6.3-1.3c-2.4-0.3-4.8-0.5-7.2-0.5c-4.2,0-7.2,0.5-8.9,1.4c-1.7,1-2.6,2.3-2.6,4.1
			c0,0.9,0.2,1.7,0.6,2.3c0.4,0.6,1,1.2,1.9,1.6c0.9,0.5,2.2,0.9,3.9,1.4l4.8,1.2c5.8,1.4,10.1,3.6,12.9,6.4
			c2.7,2.8,4.1,6.5,4.1,11.1c0,3.8-1,7.1-2.9,9.9c-2,2.8-4.8,5-8.5,6.5c-3.7,1.5-8.1,2.3-13.2,2.3C41.2,126.9,38.2,126.7,35.3,126.3
			z"/>
		<path class="st1" d="M74.5,68.4c6.4-1.2,12.7-1.9,18.8-1.9c9.2,0,16,1.7,20.5,5.2c4.5,3.5,6.8,9,6.8,16.4c0,7.1-2.2,12.5-6.6,16.2
			c-4.4,3.7-10.8,5.5-19.3,5.5c-0.8,0-1.9,0-3.3-0.1l-1.7,0v16.4H74.5V68.4z M103.2,96.2c1.7-1.6,2.6-4.2,2.6-7.9
			c0-3.7-0.9-6.3-2.7-8c-1.8-1.7-4.6-2.5-8.4-2.5c-2,0-3.6,0.1-5,0.4v20c1.8,0.2,3.5,0.3,5.1,0.3C98.6,98.6,101.4,97.8,103.2,96.2z"
			/>
		<path class="st1" d="M156,95.3l20.9,30.8h-16.8L147,106.3l-13.2,19.8h-16.6l20.9-30.6l-19.3-28.2h16.9l11.4,17.1l11.4-17.1H175
			L156,95.3z"/>
	</g>
</g>
<path class="st2" d="M184.2,153.6v11.9c0,9.8-8,17.8-17.8,17.8H33.8c-9.8,0-17.8-8-17.8-17.8v-11.9c0-2.6,2.1-4.7,4.7-4.7h159
	C182.1,148.9,184.2,151,184.2,153.6z"/>
</svg>
